<svg width="25" height="25" viewBox="0 0 25 25" fill="currentColor" xmlns="http://www.w3.org/2000/svg">
<path d="M12.5 5.00002C12.8315 5.00002 13.1495 5.13171 13.3839 5.36613C13.6183 5.60055 13.75 5.91849 13.75 6.25002V11.25H18.75C19.0815 11.25 19.3995 11.3817 19.6339 11.6161C19.8683 11.8506 20 12.1685 20 12.5C20 12.8315 19.8683 13.1495 19.6339 13.3839C19.3995 13.6183 19.0815 13.75 18.75 13.75H13.75V18.75C13.75 19.0815 13.6183 19.3995 13.3839 19.6339C13.1495 19.8683 12.8315 20 12.5 20C12.1685 20 11.8505 19.8683 11.6161 19.6339C11.3817 19.3995 11.25 19.0815 11.25 18.75V13.75H6.25C5.91848 13.75 5.60054 13.6183 5.36612 13.3839C5.1317 13.1495 5 12.8315 5 12.5C5 12.1685 5.1317 11.8506 5.36612 11.6161C5.60054 11.3817 5.91848 11.25 6.25 11.25H11.25V6.25002C11.25 5.91849 11.3817 5.60055 11.6161 5.36613C11.8505 5.13171 12.1685 5.00002 12.5 5.00002V5.00002Z" fill-opacity="0.8"/>
<path fill-rule="evenodd" clip-rule="evenodd" d="M3.75 25C2.75544 25 1.80161 24.6049 1.09835 23.9017C0.395088 23.1984 0 22.2446 0 21.25V3.75C0 2.75544 0.395088 1.80161 1.09835 1.09835C1.80161 0.395088 2.75544 0 3.75 0H21.25C22.2446 0 23.1984 0.395088 23.9017 1.09835C24.6049 1.80161 25 2.75544 25 3.75V21.25C25 22.2446 24.6049 23.1984 23.9017 23.9017C23.1984 24.6049 22.2446 25 21.25 25H3.75ZM2.5 21.25C2.5 21.5815 2.6317 21.8995 2.86612 22.1339C3.10054 22.3683 3.41848 22.5 3.75 22.5H21.25C21.5815 22.5 21.8995 22.3683 22.1339 22.1339C22.3683 21.8995 22.5 21.5815 22.5 21.25V3.75C22.5 3.41848 22.3683 3.10054 22.1339 2.86612C21.8995 2.6317 21.5815 2.5 21.25 2.5H3.75C3.41848 2.5 3.10054 2.6317 2.86612 2.86612C2.6317 3.10054 2.5 3.41848 2.5 3.75V21.25Z" fill-opacity="0.8"/>
</svg>
