<svg width="51" height="51" viewBox="0 0 51 51" fill="none" xmlns="http://www.w3.org/2000/svg">
<path opacity="0.15" d="M25 51C38.8071 51 50 39.8071 50 26C50 12.1929 38.8071 1 25 1C11.1929 1 0 12.1929 0 26C0 39.8071 11.1929 51 25 51Z" fill="black"/>
<path d="M26 50C39.8071 50 51 38.8071 51 25C51 11.1929 39.8071 0 26 0C12.1929 0 1 11.1929 1 25C1 38.8071 12.1929 50 26 50Z" fill="#3B97D3"/>
<path d="M26 5C37.0455 5 46 13.9545 46 25C46 36.0455 37.0455 45 26 45C14.9545 45 6 36.0455 6 25C6 13.9545 14.9545 5 26 5Z" fill="white"/>
<path fill-rule="evenodd" clip-rule="evenodd" d="M26 10C34.2845 10 41 16.7155 41 25C41 33.284 34.2845 40 26 40C17.7155 40 11 33.284 11 25C11 16.7155 17.7155 10 26 10Z" fill="#6BC8F2"/>
<path d="M26 15C31.523 15 36 19.4775 36 25C36 30.5225 31.523 35 26 35C20.477 35 16 30.5225 16 25C16 19.4775 20.477 15 26 15Z" fill="white"/>
<path fill-rule="evenodd" clip-rule="evenodd" d="M26 20C28.7615 20 31 22.2385 31 25C31 27.761 28.7615 30 26 30C23.2385 30 21 27.761 21 25C21 22.2385 23.2385 20 26 20Z" fill="#E64C3C"/>
<path fill-rule="evenodd" clip-rule="evenodd" d="M44.5 37H38L44.5 43.5H51L44.5 37Z" fill="#F0C419"/>
<path fill-rule="evenodd" clip-rule="evenodd" d="M44.5 50V43.5L38 37V43.5L44.5 50Z" fill="#F29C1F"/>
<path fill-rule="evenodd" clip-rule="evenodd" d="M44.5 37H38L44.5 43.5H51L44.5 37Z" fill="#F0C419"/>
<path opacity="0.15" d="M25.2195 24.2195L7.5605 41.8785C7.89931 42.2463 8.24896 42.604 8.609 42.951L26.28 25.28C26.3516 25.2108 26.4088 25.1281 26.4481 25.0366C26.4874 24.945 26.5081 24.8466 26.5089 24.7471C26.5098 24.6475 26.4908 24.5487 26.4531 24.4565C26.4154 24.3644 26.3597 24.2806 26.2893 24.2102C26.2189 24.1398 26.1351 24.0841 26.043 24.0464C25.9508 24.0087 25.852 23.9897 25.7524 23.9906C25.6529 23.9914 25.5545 24.0121 25.4629 24.0514C25.3714 24.0907 25.2887 24.1479 25.2195 24.2195Z" fill="black"/>
<path d="M45.1815 44.948C44.9895 44.948 44.797 44.875 44.6505 44.7285L25.4695 25.5305C25.3349 25.3885 25.2611 25.1996 25.2638 25.004C25.2664 24.8084 25.3454 24.6215 25.4838 24.4833C25.6222 24.345 25.8091 24.2663 26.0047 24.2638C26.2003 24.2613 26.3891 24.3353 26.531 24.47L45.7125 43.6675C45.8172 43.7725 45.8885 43.9062 45.9173 44.0517C45.9462 44.1972 45.9312 44.348 45.8744 44.485C45.8176 44.622 45.7214 44.7391 45.5981 44.8215C45.4748 44.9039 45.3298 44.9479 45.1815 44.948Z" fill="#E57E25"/>
</svg>
