<svg width="100" height="100" viewBox="0 0 100 100" fill="none" xmlns="http://www.w3.org/2000/svg">
<path d="M65.472 38.1705L65.4126 39.5697C65.4039 39.7597 65.1967 44.2837 63.6687 49.5709C62.3575 54.1056 59.806 60.0119 54.9887 63.3314C54.6128 63.5919 54.2226 63.8351 53.8182 64.0609L53.3672 61.5782C54.4995 60.9534 55.5903 60.117 56.6206 59.0832C59.0761 56.5975 60.9852 53.0497 62.3164 48.4843C63.0228 46.0536 63.5262 43.4576 63.8112 40.7758H58.3304V38.1705H65.472Z" fill="#EAE04F"/>
<path opacity="0.1" d="M54.3986 63.333C59.2151 60.0135 61.7675 54.1087 63.0778 49.574C64.6058 44.2868 64.8138 39.7658 64.8217 39.5727L64.8811 38.1735H65.493L65.4336 39.5727C65.4257 39.7628 65.2177 44.2868 63.6897 49.574C62.3785 54.1087 59.827 60.0135 55.0105 63.333C54.6347 63.5935 54.2442 63.8372 53.8392 64.064L53.7798 63.7376C53.9907 63.6058 54.197 63.4709 54.3986 63.333Z" fill="#FFE7D0"/>
<path d="M44.7552 61.5782L44.3042 64.0609C43.8992 63.8341 43.5087 63.5904 43.1329 63.3299C38.3164 60.0104 35.764 54.1056 34.4537 49.5709C32.9257 44.2837 32.7176 39.7628 32.7098 39.5697L32.6503 38.1705H39.7884V40.7758H34.3068C34.5933 43.4579 35.0982 46.054 35.8059 48.4843C37.1372 53.0497 39.0454 56.5975 41.5009 59.0817C42.5313 60.1165 43.6224 60.9535 44.7552 61.5782V61.5782Z" fill="#EAE04F"/>
<path opacity="0.1" d="M43.7221 63.333C38.9056 60.0135 36.3531 54.1087 35.0428 49.574C33.5148 44.2868 33.3068 39.7658 33.2989 39.5727L33.2395 38.1735H32.6276L32.687 39.5727C32.6949 39.7628 32.9029 44.2868 34.4309 49.574C35.7421 54.1087 38.2937 60.0135 43.1102 63.333C43.4861 63.5935 43.8765 63.8372 44.2815 64.064L44.341 63.7376C44.1306 63.6058 43.9243 63.4709 43.7221 63.333Z" fill="white"/>
<path d="M57.3068 85.5775V99.6261H40.8147V85.5775L41.3391 84.3515C46.6835 81.0259 47.7666 72.3534 47.9825 68.922C48.0146 68.4479 48.033 67.9712 48.0376 67.4937H50.0769C50.0815 67.9712 50.0998 68.4479 50.132 68.922C50.3514 72.3534 51.4344 81.029 56.7753 84.3515L57.3068 85.5775Z" fill="#EAE04F"/>
<path opacity="0.1" d="M57.3068 85.5775H40.8147V87.3398H57.3068V85.5775Z" fill="black"/>
<path opacity="0.1" d="M42.2133 84.3515C47.5577 81.0259 48.6407 72.3534 48.8566 68.922C48.8888 68.4479 48.9071 67.9712 48.9117 67.4937H48.0376C48.033 67.9712 48.0146 68.4479 47.9825 68.922C47.7631 72.3534 46.6801 81.029 41.3391 84.3515L40.8147 85.5775V99.6261H41.6888V85.5775L42.2133 84.3515Z" fill="#FFE7D0"/>
<path opacity="0.1" d="M38.3095 38.1705H39.7885V40.7758H38.4406C38.3876 39.9175 38.3439 39.0491 38.3095 38.1705Z" fill="black"/>
<path opacity="0.1" d="M44.7552 61.5782L44.3042 64.0609C43.8992 63.8341 43.5087 63.5904 43.1329 63.3299C42.5145 62.0061 41.9682 60.5838 41.5009 59.0817C42.5313 60.1165 43.6224 60.9535 44.7552 61.5782Z" fill="black"/>
<path opacity="0.1" d="M53.3663 61.5782C54.4986 60.9534 55.5894 60.1169 56.6197 59.0832C56.1522 60.5855 55.6058 62.0083 54.9878 63.3329C54.6119 63.5935 54.2217 63.8366 53.8173 64.0624L53.3663 61.5782Z" fill="black"/>
<path opacity="0.1" d="M59.8111 38.1705C59.7768 39.0491 59.7331 39.9175 59.68 40.7758H58.333V38.1705H59.8111Z" fill="black"/>
<path opacity="0.1" d="M50.1355 68.922C49.4256 69.1632 48.6959 69.1632 47.986 68.922C48.0181 68.4479 48.0365 67.9712 48.0411 67.4937H50.0804C50.085 67.9712 50.1033 68.4479 50.1355 68.922V68.922Z" fill="black"/>
<path d="M38.4843 33.8549C38.5218 53.1739 43.2421 68.7964 49.0612 68.7964C54.8802 68.7964 59.5996 53.1739 59.6381 33.8549H38.4843Z" fill="#EAE04F"/>
<path opacity="0.1" d="M40.3636 33.8549H38.4843C38.5218 53.1739 43.2421 68.7964 49.0612 68.7964C49.3761 68.7954 49.6904 68.7487 50.0009 68.6569C44.6215 67.0815 40.3995 52.1226 40.3636 33.8549Z" fill="#FFE7D0"/>
<path d="M54.6696 90.9551H43.4519V96.0124H54.6696V90.9551Z" fill="#3F3D56"/>
<path opacity="0.1" d="M43.9764 91.6447H54.6696V90.9551H43.4519V96.0124H43.9764V91.6447Z" fill="#190B45"/>
<path d="M17.2103 39.41L22.7706 34.1356L19.5603 25L14 30.2744L17.2103 39.41Z" fill="#65FFE0"/>
<path d="M48.2103 22.41L53.7706 17.1356L50.5604 8L45 13.2744L48.2103 22.41Z" fill="#FF6584"/>
<path d="M78.2103 41.41L83.7706 36.1356L80.5604 27L75 32.2744L78.2103 41.41Z" fill="#6584FF"/>
</svg>
